<?xml version="1.0" encoding="UTF-8"?>
<svg xmlns="http://www.w3.org/2000/svg" width="360" height="360" viewBox="0 0 360 360" fill="none">
  <g transform="translate(-330 -330)">
    <path fill="#262A53" transform="matrix(1.56276 0 0 1.56322 0 0.00012207)" d="M471.456 504.661C472.456 506.132 470.474 510.889 469.949 512.785C466.719 524.448 464.901 533.827 465.722 545.979C466.982 564.633 474.304 581.938 486.063 596.397C539.959 662.664 637.394 618.952 662.093 641.056C667.146 645.578 669.905 652.42 670.099 659.132C670.34 666.37 667.582 673.386 662.478 678.523C659.566 681.489 653.977 684.253 650.093 684.568C630.082 686.195 606.093 685.398 585.881 685.371C582.145 685.443 578.409 685.448 574.673 685.386C533.94 684.637 501.335 670.004 473.213 640.867C473.439 648.371 474.232 658.012 472.53 665.268C466.866 693.597 423.116 688.106 423.533 660.693C423.903 636.415 422.137 608.059 424.172 584.205C424.808 576.418 426.167 568.706 428.233 561.171C435.207 536.182 448.722 517.433 471.456 504.661Z"/>
    <path fill="#262A53" transform="matrix(1.56276 0 0 1.56322 0 0.00012207)" d="M416.332 337.585C463.426 337.788 510.892 342.479 543.556 381.242C543.446 369.972 542.145 352.548 551.696 345.425C567.956 333.297 589.983 340.109 592.85 361.304C594.348 372.376 593.145 382.091 593.374 392.542C594.395 439.146 595.49 479.623 556.049 511.8C553.224 513.762 549.073 516.095 546.041 517.923C557.161 481.188 555.683 452.966 528.918 422.811C491.21 380.325 438.105 390.128 387.568 389.426C378.028 389.294 365.555 390.001 357.257 384.081C346.352 375.413 342.721 357.721 352.847 346.873C365.743 333.06 398.268 338.734 416.332 337.585Z"/>
    <path fill="#262A53" transform="matrix(1.56276 0 0 1.56322 0 0.00012207)" d="M639.647 339.783C677.121 335.579 668.605 376.305 669.581 398.938C672.459 465.7 665.888 506.095 613.108 550.389C600.476 550.989 590.749 551.414 578.194 550.363C564.915 548.778 557.136 546.699 545.007 541.436C564.465 537.488 576.232 530.177 589.824 516.414C626.417 479.56 618.96 428.626 619.304 381.414C619.443 362.329 616.805 346.009 639.647 339.783Z"/>
    <path fill="#262A53" transform="matrix(1.56276 0 0 1.56322 0 0.00012207)" d="M416.741 473.532C436.44 472.493 452.31 474.796 470.629 481.648C454.018 485.757 440.732 492.365 428.545 504.623C388.102 545.301 399.135 600.291 398.378 652.144C398.208 663.78 396.513 671.496 388.236 679.558C375.104 687.123 359.705 686.389 351.254 672.26C347.467 665.64 347.366 656.283 347.574 648.815C348.254 624.435 346.383 599.003 348.341 574.738C348.958 567.015 350.205 559.355 352.069 551.834C359.317 522.944 379.459 489.432 405.421 473.865L416.741 473.532Z"/>
    <path fill="#262A53" transform="matrix(1.56276 0 0 1.56322 0 0.00012207)" d="M369.075 415.472C376.927 414.666 392.435 414.808 400.689 414.896C421.291 415.114 442.555 413.544 462.498 418.995C488.914 426.411 513.091 442.357 527.052 466.62C535.978 482.131 544.684 506.657 525.279 519.162C523.601 520.243 522.273 519.828 520.653 519.133L519.467 515.503C514.001 502.699 506.535 495.039 495.684 486.645C461.727 460.379 425.982 465.915 386.102 465.595C376.844 465.414 367.181 466.931 358.845 461.792C347.957 455.079 343.181 439.394 349.882 428.132C354.643 420.128 360.334 417.662 369.075 415.472Z"/>
    <path fill="#262A53" transform="matrix(1.56276 0 0 1.56322 0 0.00012207)" d="M495.501 502.034C496.693 503.247 500.21 512.234 501.953 514.92C523.668 548.969 562.631 561.062 601.35 559.274C614.678 558.659 639.965 556.952 651.988 560.069C674.899 566.01 676.929 595.147 654.594 607.013C642.98 611.154 589.378 610.029 575.912 608.519C567.463 607.62 559.125 605.875 551.024 603.31C523.966 594.609 500.767 576.276 487.879 550.723C478.854 532.829 474.536 512.599 495.501 502.034Z"/>
  </g>
</svg>
